<svg clip-rule="evenodd" fill-rule="evenodd" stroke-linejoin="round" stroke-miterlimit="1.41421" viewBox="0 0 90 90" xmlns="http://www.w3.org/2000/svg"><circle cx="45" cy="45" fill="#00933b" r="45"/><path d="m39.9056 60.2669c1.3672 1.6059 3.1033 2.4089 5.2083 2.4089 2.0617 0 3.6838-.7758 4.8666-2.3275 1.1827-1.5516 1.7741-3.5644 1.7741-6.0384 0-2.7561-.6728-4.8665-2.0183-6.3314-1.3455-1.4648-2.9948-2.1972-4.9479-2.1972-1.5842 0-2.9839.4774-4.1992 1.4322-1.8229 1.4106-2.7344 3.6893-2.7344 6.836 0 2.539.6836 4.6115 2.0508 6.2174zm11.0026-26.595c0-.7596-.293-1.5951-.8789-2.5065-.9983-1.4757-2.5065-2.2136-4.5247-2.2136-3.0165 0-5.165 1.6927-6.4454 5.0781-.6944 1.8664-1.1718 4.6224-1.4322 8.2683 1.1501-1.3672 2.4848-2.3655 4.0039-2.9948 1.5191-.6294 3.2552-.944 5.2083-.944 4.1884 0 7.6226 1.4214 10.3027 4.2643s4.0202 6.4779 4.0202 10.9049c0 4.4054-1.3129 8.29-3.9388 11.6537s-6.7057 5.0456-12.2396 5.0456c-5.9462 0-10.3298-2.4848-13.151-7.4545-2.1919-3.8845-3.2878-8.8975-3.2878-15.039 0-3.6025.1519-6.5321.4558-8.7891.5425-4.0147 1.595-7.3568 3.1575-10.026 1.3455-2.2787 3.1087-4.1124 5.2897-5.5013s4.7906-2.0834 7.8288-2.0834c4.3837 0 7.8776 1.1231 10.4818 3.3692 2.6041 2.2461 4.069 5.2354 4.3945 8.9681z" fill="#fff" fill-rule="nonzero"/></svg>